<svg width="64" height="64" viewBox="0 0 64 64" fill="none" xmlns="http://www.w3.org/2000/svg">
<circle cx="32" cy="32" r="32" fill="#8A589D"/>
<path d="M45.3619 25.085C45.5542 24.46 45.3619 24 44.4366 24H41.3751C40.5954 24 40.2367 24.395 40.0444 24.835C40.0444 24.835 38.485 28.49 36.2811 30.86C35.569 31.545 35.2415 31.765 34.8517 31.765C34.6593 31.765 34.3631 31.545 34.3631 30.92V25.085C34.3631 24.335 34.1447 24 33.5002 24H28.6869C28.1983 24 27.9072 24.35 27.9072 24.675C27.9072 25.385 29.0092 25.55 29.1236 27.55V31.89C29.1236 32.84 28.9468 33.015 28.557 33.015C27.5174 33.015 24.9912 29.345 23.4942 25.145C23.1927 24.33 22.8964 24 22.1116 24H19.05C18.1767 24 18 24.395 18 24.835C18 25.615 19.0396 29.49 22.8393 34.61C25.3707 38.105 28.9364 40 32.1799 40C34.1292 40 34.3683 39.58 34.3683 38.855C34.3683 35.515 34.1915 35.2 35.1687 35.2C35.621 35.2 36.4006 35.42 38.2199 37.105C40.2991 39.105 40.6422 40 41.8065 40H44.8681C45.7413 40 46.1831 39.58 45.9284 38.75C45.3463 37.005 41.4114 33.415 41.2347 33.175C40.7825 32.615 40.9124 32.365 41.2347 31.865C41.2399 31.86 44.9772 26.8 45.3619 25.085Z" fill="white"/>
</svg>
