<svg width="64" height="64" viewBox="0 0 64 64" fill="none" xmlns="http://www.w3.org/2000/svg">
<g clip-path="url(#clip0_340_3287)">
<path d="M32 64C49.6731 64 64 49.6731 64 32C64 14.3269 49.6731 0 32 0C14.3269 0 0 14.3269 0 32C0 49.6731 14.3269 64 32 64Z" fill="#8A589D"/>
<path d="M20.5327 30.7101L35.4243 24.7737C36.8943 24.1553 41.8795 22.1766 41.8795 22.1766C41.8795 22.1766 44.1804 21.3108 43.9886 23.4133C43.9247 24.279 43.4134 27.309 42.9021 30.5864L41.3043 40.2948C41.3043 40.2948 41.1765 41.717 40.09 41.9644C39.0035 42.2117 37.2139 41.0987 36.8943 40.8513C36.6387 40.6658 32.1009 37.8831 30.4392 36.5227C29.9918 36.1517 29.4805 35.4097 30.5031 34.5439C32.8039 32.5033 35.5522 29.968 37.2139 28.3603C37.9809 27.6182 38.7478 25.8868 35.5522 27.9892L26.5405 33.8637C26.5405 33.8637 25.5179 34.4821 23.6005 33.9256C21.6831 33.369 19.4462 32.627 19.4462 32.627C19.4462 32.627 17.9123 31.6995 20.5327 30.7101Z" fill="white"/>
</g>
<defs>
<clipPath id="clip0_340_3287">
<rect width="64" height="64" fill="white"/>
</clipPath>
</defs>
</svg>
